<?xml version="1.0" encoding="UTF-8"?>
<svg xmlns="http://www.w3.org/2000/svg" viewBox="0 0 200 128">
  <defs>
    <style>
      .cls-1 {
        fill: #fff;
      }

      .cls-2 {
        fill: #2376f3;
      }

      .cls-3 {
        fill: #2a2c2f;
      }
    </style>
  </defs>
  <g id="BG">
    <rect class="cls-1" x="0" width="200" height="128" rx="4" ry="4"/>
  </g>
  <g id="LOGOS">
    <g>
      <path class="cls-2" d="m65.62,29.47l-40.09-.16h-.03c-1.25,0-2.48.24-3.63.72-1.15.48-2.2,1.17-3.08,2.05-.88.88-1.58,1.93-2.06,3.08-.48,1.15-.72,2.39-.72,3.63v50.42c0,1.25.24,2.48.72,3.63s1.17,2.2,2.05,3.08c.88.88,1.93,1.58,3.08,2.05,1.15.48,2.38.72,3.63.72h.05l40.11-.13v-2.42c0-11.91-4.51-23.39-12.63-32.11,8.14-8.72,12.65-20.22,12.61-32.15v-2.41Zm-30.72,22.11c-4.88-1.99-8.78-2.36-14.05-2.62v-.09c3.67-.55,7.06-2.28,9.67-4.93,2.61-2.64,4.29-6.06,4.79-9.74l8.77.04c-.59,7.01-3.87,12.73-9.18,17.34Zm-12.68-16.07c.43-.43.94-.77,1.5-1,.56-.23,1.16-.35,1.77-.35l4.01.04c0,1.86-1,4.17-2.7,5.91-1.7,1.73-4.01,2.7-5.9,2.7l-.04-4.03c0-.61.12-1.21.36-1.77.23-.56.58-1.07,1.01-1.49Zm-1.37,43.69v-8.73c6.33.6,11.59,2.24,16.07,6.75,4.48,4.51,6.56,10.17,7.13,16.52l-8.75.02c-.52-3.66-2.21-7.05-4.81-9.68-2.6-2.62-5.99-4.33-9.64-4.88h0Zm4.68,14.64c-1.23,0-2.41-.49-3.28-1.36-.87-.87-1.36-2.05-1.36-3.28v-3.88c1.85,0,4.21.98,5.9,2.7,1.69,1.72,2.7,4.05,2.7,5.74l-3.97.08Zm34.17-.1l-9.41.03c-.58-7.62-3.87-14.78-9.27-20.19-5.4-5.41-12.55-8.72-20.17-9.32l.04-9.62c10.38.64,18.81,4.45,26.15,11.81,7.34,7.36,12.05,16.93,12.65,27.32v-.03Zm-11.3-34.06c-2.65-2.33-4.42-3.37-7.51-5.06,5.49-5.42,8.82-12.66,9.37-20.36l8.95-.02c-.53,9.82-4.11,18.23-10.8,25.44Z"/>
      <path class="cls-3" d="m81.65,82.17h7.29v-7.46l3.7-4.04,6.79,11.5h8.24l-9.81-16.43,9.59-10.99h-8.64l-9.76,11.5h-.11v-20.93h-7.29v36.85Z"/>
      <path class="cls-3" d="m121.01,82.68c8.53,0,14.53-5.83,14.53-14.19s-6-14.13-14.53-14.13-14.58,5.94-14.58,14.13,5.83,14.19,14.58,14.19Zm0-6.62c-4.21,0-7.12-3.31-7.12-7.57s2.86-7.57,7.12-7.57c4.04,0,7.07,3.08,7.07,7.57s-3.14,7.57-7.07,7.57Z"/>
      <path class="cls-3" d="m139.06,82.17h7.35v-12.68c0-4.15,2.41-7.18,6.96-7.18.45,0,1.18,0,1.96.05v-8.02h-.56c-3.2,0-6.17,1.59-8.24,4.38h-.11v-3.98h-7.35v27.43Z"/>
      <path class="cls-3" d="m168.63,82.68c3.59,0,6.34-1.35,8.24-3.81l.11.06v3.25h7.01v-27.43h-7.35v3.15l-.11.06c-1.96-2.36-4.88-3.59-8.08-3.59-7.35,0-12.9,5.89-12.9,14.19s5.55,14.13,13.07,14.13h0Zm1.4-6.61c-4.15,0-7.01-3.08-7.01-7.46,0-4.71,3.03-7.68,7.01-7.68s6.95,3.25,6.95,7.68-3.2,7.46-6.95,7.46Z"/>
    </g>
  </g>
</svg>